<svg xmlns="http://www.w3.org/2000/svg" width="731" height="811" viewBox="0 0 731 811">
  <defs>
    <linearGradient id="gradient" x1="50%" x2="50%" y1="0%" y2="100%">
      <stop offset="0%" stop-color="#fca080"/>
      <stop offset="100%" stop-color="#fdd530"/>
    </linearGradient>
  </defs>
  <path fill="url(#gradient)" fill-rule="evenodd" d="M277.278 503.874s-82.757 2.164-98.644 1.426c-21.218-.975-47.756-6.595-52.694-.7-6.46 7.68-9.912 40.419-5.368 52.647 1.225 3.297 18.203-1.835 19.21.975 0 0-11.082 36.976-5.229 46.192 5.611 8.833 34.612 28.741 41.625 37.622 3.506 4.444 43.57 17.726 49.576 19.36 12.01 3.273 30.16-26.18 39.895-21.383 0 0-4.549 15.239.977 15.513 5.083 2.81 17.336 3.346 20.818 0 6.43-8.004 24.761-91.306 24.761-91.306s24.767 23.596 33.496 36.793c24.209 36.55 50.553 28.442 59.464 29.344l-10.761 21.713c13.885 6.93 26.89 22.895 47.199 33.41 14.928 7.729 64.365 22.858 87.937 35.25 18.75 9.845 37.396 26.742 45.075 41.005 7.273 13.533 13.09 11.247 13.09 11.247s-1.874-7.473-4.622-15.977c-4.622-14.251 4.659-13.477 4.659-13.477s17.64 31.612 19.192 38.47c3.73 16.524 13.897 29.002 13.897 29.002s4.847-27.869 1.941-45.351c-3.979-23.999 1.954-22.31 1.954-22.31s14.37 19.347 21.94 37.86c9.851 24.096 21.588 21.194 21.588 21.194s-8.413-31.124-12.507-41.34c-6.636-16.568.376-19.616.376-19.616s26.174 29.88 36.595 38.299c8.541 6.906 17.622 3.608 17.622 3.608s-18.131-27.637-21.304-32.514c-7.297-11.167-5.926-15.123-5.926-15.123s19.265 8.967 31.397 21.158c12.132 12.191 16.493 3.237 16.493 3.237s-31.003-36.476-41.69-50.35c-10.689-13.855-77.85-66.801-94.617-85.454-8.801-9.79-72.493-64.363-93.19-80.565-20.709-16.202-34.418-25.108-34.418-25.108s3.155-9.655 6.388-15.641c3.233-5.992 5.283-19.555 5.283-19.555s18.92-7.248 24.998-7.107c6.09.158 13.933 3.194 13.933 3.194s3.209-14.861-9.323-21.371c-12.526-6.51-30.79-15.867-33.496-17.739-7.485-5.205-62.946 14.965-97.315-19.56-22.116-22.231-90.703-145.679-136.81-199.966-18.865-22.188-50.85-60.645-80.646-100.529C116.993 62.681 90.217 9.497 83.279 0c0 0-2.16 17.94 6.575 33.477 8.717 15.525 40.375 68.228 40.375 68.228s-7.146 1.469-13.14-4.572c-6.004-6.022-69.247-84.064-69.247-84.064s-2.584 15.123 3.281 23.108c6.515 8.906 51.882 70.087 51.882 70.087s-12.029-2.078-17.919-7.997c-5.884-5.919-73.415-63.68-73.415-63.68S8.662 45.582 23.244 61.168c4.726 5.047 54.666 58.823 54.666 58.823s-17.227-4.115-24.548-11.472C46.04 101.162 0 85.436 0 85.436s.831 5.34 6.74 11.368c8 8.132 22.631 18.89 32.179 32.642l-17.367-3.609c.698 4.072 14.734 18.244 26.29 36.574 13.684 21.743 24.427 48.972 27.605 64.516 3.482 17.012 26.03 74.183 28.953 84.936 10.542 38.621 69.758 70.099 69.758 70.099 1.929 8.845-4.55 16.763-4.55 16.763 38.288 30.929 69.06 79.492 77.601 88.995 8.54 9.497 30.069 16.154 30.069 16.154" opacity="0.5" />
</svg>
